<svg width="120" height="35" viewBox="0 0 120 35" fill="none" xmlns="http://www.w3.org/2000/svg">
<path d="M22.9464 27.684H8.97838L6.57838 34.5H0.866375L12.8184 1.092H19.1544L31.1064 34.5H25.3464L22.9464 27.684ZM21.4104 23.22L15.9864 7.716L10.5144 23.22H21.4104ZM41.7751 30.084H53.0551V34.5H36.3031V1.14H41.7751V30.084ZM81.7753 10.74C80.9113 9.076 79.7113 7.828 78.1753 6.996C76.6393 6.132 74.8633 5.7 72.8473 5.7C70.6393 5.7 68.6713 6.196 66.9433 7.188C65.2153 8.18 63.8553 9.588 62.8633 11.412C61.9033 13.236 61.4233 15.348 61.4233 17.748C61.4233 20.148 61.9033 22.276 62.8633 24.132C63.8553 25.956 65.2153 27.364 66.9433 28.356C68.6713 29.348 70.6393 29.844 72.8473 29.844C75.8233 29.844 78.2393 29.012 80.0953 27.348C81.9513 25.684 83.0873 23.428 83.5033 20.58H70.9753V16.212H89.3593V20.484C89.0073 23.076 88.0793 25.46 86.5753 27.636C85.1033 29.812 83.1673 31.556 80.7673 32.868C78.3993 34.148 75.7593 34.788 72.8473 34.788C69.7113 34.788 66.8473 34.068 64.2553 32.628C61.6633 31.156 59.5993 29.124 58.0633 26.532C56.5593 23.94 55.8073 21.012 55.8073 17.748C55.8073 14.484 56.5593 11.556 58.0633 8.964C59.5993 6.372 61.6633 4.356 64.2553 2.916C66.8793 1.444 69.7433 0.707997 72.8473 0.707997C76.3993 0.707997 79.5513 1.588 82.3033 3.348C85.0873 5.076 87.1033 7.54 88.3513 10.74H81.7753ZM106.228 34.932C103.732 34.932 101.476 34.372 99.4603 33.252C97.4443 32.1 95.8603 30.5 94.7083 28.452C93.5563 26.372 92.9803 23.972 92.9803 21.252C92.9803 18.564 93.5723 16.18 94.7563 14.1C95.9403 12.02 97.5563 10.42 99.6043 9.3C101.652 8.18 103.94 7.62 106.468 7.62C108.996 7.62 111.284 8.18 113.332 9.3C115.38 10.42 116.996 12.02 118.18 14.1C119.364 16.18 119.956 18.564 119.956 21.252C119.956 23.94 119.348 26.324 118.132 28.404C116.916 30.484 115.252 32.1 113.14 33.252C111.06 34.372 108.756 34.932 106.228 34.932ZM106.228 30.18C107.636 30.18 108.948 29.844 110.164 29.172C111.412 28.5 112.42 27.492 113.188 26.148C113.956 24.804 114.34 23.172 114.34 21.252C114.34 19.332 113.972 17.716 113.236 16.404C112.5 15.06 111.524 14.052 110.308 13.38C109.092 12.708 107.78 12.372 106.372 12.372C104.964 12.372 103.652 12.708 102.436 13.38C101.252 14.052 100.308 15.06 99.6043 16.404C98.9003 17.716 98.5483 19.332 98.5483 21.252C98.5483 24.1 99.2683 26.308 100.708 27.876C102.18 29.412 104.02 30.18 106.228 30.18Z" fill="#7575CD"/>
</svg>
