<svg width="20" height="21" viewBox="0 0 20 21" fill="none" xmlns="http://www.w3.org/2000/svg">
<path d="M8.47095 12.2065C9.29009 13.0256 10.4011 13.4857 11.5594 13.4857C12.7178 13.4857 13.8288 13.0256 14.6479 12.2065L17.7359 9.11849C18.5421 8.29669 18.9913 7.18986 18.9857 6.03868C18.9802 4.88749 18.5204 3.78503 17.7064 2.97101C16.8924 2.15699 15.7899 1.69723 14.6388 1.6917C13.4876 1.68617 12.3807 2.13532 11.5589 2.94149L10.0149 4.48549M11.5589 9.11849C10.7398 8.29972 9.6291 7.83977 8.47095 7.83977C7.3128 7.83977 6.20205 8.29972 5.38295 9.11849L2.29395 12.2065C1.47483 13.0256 1.01465 14.1366 1.01465 15.295C1.01465 16.4534 1.47483 17.5644 2.29395 18.3835C3.11307 19.2026 4.22403 19.6628 5.38245 19.6628C6.54086 19.6628 7.65183 19.2026 8.47095 18.3835L10.0149 16.8395L11.5589 9.11849Z" stroke="white" stroke-width="2" stroke-linecap="round" stroke-linejoin="round"/>
</svg>
