<svg width="15" height="18" viewBox="0 0 26 22" fill="none" xmlns="http://www.w3.org/2000/svg">
<path d="M25.355 3.33882C24.4463 3.74147 23.4702 4.01354 22.4439 4.13651C23.5028 3.50292 24.295 2.50572 24.6727 1.33098C23.6778 1.92189 22.589 2.33783 21.4536 2.56071C20.6901 1.74546 19.6787 1.2051 18.5766 1.02352C17.4745 0.84194 16.3433 1.02931 15.3585 1.55652C14.3738 2.08374 13.5907 2.92132 13.1308 3.93921C12.6709 4.95711 12.5599 6.09837 12.815 7.18581C10.7992 7.0846 8.82723 6.56066 7.02703 5.648C5.22683 4.73534 3.63865 3.45435 2.36556 1.88817C1.93025 2.63907 1.67995 3.50967 1.67995 4.43687C1.67947 5.27156 1.88502 6.09346 2.27836 6.82966C2.67171 7.56586 3.24069 8.19358 3.93483 8.65714C3.12981 8.63152 2.34256 8.414 1.6386 8.02268V8.08798C1.63852 9.25866 2.04347 10.3933 2.78473 11.2994C3.526 12.2055 4.55793 12.8273 5.70542 13.0591C4.95864 13.2613 4.1757 13.291 3.41573 13.1462C3.73948 14.1535 4.37012 15.0344 5.21937 15.6654C6.06862 16.2965 7.09395 16.6462 8.15183 16.6656C6.35602 18.0754 4.13821 18.8401 1.85516 18.8367C1.45075 18.8368 1.04667 18.8132 0.64502 18.766C2.96244 20.256 5.66009 21.0468 8.41519 21.0437C17.7416 21.0437 22.8401 13.3192 22.8401 6.61992C22.8401 6.40227 22.8346 6.18244 22.8248 5.96479C23.8165 5.2476 24.6726 4.35949 25.3528 3.34208L25.355 3.33882Z" fill="#4753BD"/>
</svg>
